PathFileType	4	(X/Y/Z)	Patient4_TMGait_0pt5_02_right_26.trc.trc
DataRate	CameraRate	NumFrames	NumMarkers	Units	OrigDataRate	OrigDataStartFrame	OrigNumFrames
76.923076923077	76.923076923077	4	33	mm	76.923076923077	89	       141
Frame#	Time	Sacral			L.Shoulder			Chest			R.Shoulder			Neck			R.ASIS			L.ASIS			R.Thigh.Superior			R.Thigh.Lateral			R.Thigh.Inferior			R.Patella			L.Thigh.Superior			L.Thigh.Lateral			L.Thigh.Inferior			L.Patella			L.Shank.Superior			L.Shank.Lateral			L.Shank.Inferior			R.Shank.Superior			R.Shank.Lateral			R.Shank.Inferior			R.Heel			R.Midfoot.Superior			R.Midfoot.Lateral			R.Toe			L.Heel			L.Midfoot.Lateral			L.Midfoot.Superior			L.Toe			L.Elbow			L.Wrist			R.Elbow			R.Wrist			
		X1	Y1	Z1	X2	Y2	Z2	X3	Y3	Z3	X4	Y4	Z4	X5	Y5	Z5	X6	Y6	Z6	X7	Y7	Z7	X8	Y8	Z8	X9	Y9	Z9	X10	Y10	Z10	X11	Y11	Z11	X12	Y12	Z12	X13	Y13	Z13	X14	Y14	Z14	X15	Y15	Z15	X16	Y16	Z16	X17	Y17	Z17	X18	Y18	Z18	X19	Y19	Z19	X20	Y20	Z20	X21	Y21	Z21	X22	Y22	Z22	X23	Y23	Z23	X24	Y24	Z24	X25	Y25	Z25	X26	Y26	Z26	X27	Y27	Z27	X28	Y28	Z28	X29	Y29	Z29	X30	Y30	Z30	X31	Y31	Z31	X32	Y32	Z32	X33	Y33	Z33	

89	35.034000000000	643.757520582893	1004.122293019168	452.162230192107	795.782561482212	1434.069258228581	270.941253528400	911.374513291625	1363.902699538428	423.514486779985	839.609017973036	1436.260084290777	603.658670801829	803.309097544013	1493.748802348787	422.180018627249	870.806341094190	937.388093157915	563.742066309339	855.029859745968	959.708368747552	290.766864716098	906.297248991820	732.270641611281	547.822598196389	822.137866312119	626.459462393330	611.996528863483	903.563267706720	564.105388309176	541.383397995036	890.869836178444	455.150443124236	562.694693915813	920.469350599424	761.405933681545	323.479961425782	847.484643815209	636.826313913627	263.269989074717	940.449183598824	569.289461772605	327.073528376099	948.274191624773	498.543486108645	336.211556409219	927.563966440975	424.520881708286	328.739701474596	847.905472716199	302.422115735913	280.439740836135	909.307110014024	197.090084920234	352.195566052260	811.970428002309	389.719872236783	564.687519501595	688.871529222256	350.609269203570	619.870845128215	675.521952410704	242.264138439779	568.595277776636	473.022981876166	177.383869355341	532.419397820286	640.701241188966	123.643472275198	576.444785319904	530.739965738913	117.700551164573	605.554352009407	708.768400519910	30.390254476166	602.218677785668	792.132088464564	37.677322371803	397.321291234434	865.505385545765	35.091793471266	315.523056430031	947.923044304405	97.235623129216	341.178515225912	1076.550179294697	47.469438297294	312.950151188355	752.391394629535	1082.295393225706	149.772851735326	818.146231200354	829.051241457649	143.327111410072	913.993458522679	1098.656560028238	718.204025401222	1148.368746678453	1047.445551452584	634.968997571419	
90	35.047000000000	643.488052855452	1004.161988144120	449.357565513334	797.613459241579	1434.135457677329	268.152391598595	911.763205490800	1364.120838116984	421.876257173483	838.449090458164	1436.640351365904	601.328357523481	803.751788905926	1494.047953193863	419.421764786970	870.290192156488	937.741758723248	561.790401634734	855.601457610962	959.943295017501	288.948266280632	911.472427542485	735.116736883473	546.360645974758	830.656790260128	627.552582236056	611.268981028194	913.942678403952	566.730198231765	540.785159953314	902.837676978971	456.607504113048	562.677520774434	919.758014862989	760.629265662643	321.090379971997	845.575189113604	636.787808145593	261.420867625088	937.859491824822	568.560762171782	325.243211866524	945.060113436566	497.810644441256	334.538569408261	923.887524491974	423.827789313267	327.378697788676	843.479646379866	302.138040443009	279.350600689040	903.866801603752	196.632699049015	351.621718171057	822.456392493815	391.669513363026	564.414004531112	698.001072798532	356.195324621908	619.284577635112	681.833833726693	248.199645189149	568.424793446805	478.365791072573	192.012479934193	531.469066242404	642.900589330369	129.195000451595	576.482951395412	532.367881760974	128.928310322796	604.715766717156	705.289286308133	29.941560589994	602.510166259320	785.644608633374	37.695346403238	397.187140847008	859.021202103457	35.011052886918	315.411142343837	941.545005338323	97.050839785275	341.078149672641	1070.165052395465	47.034220296773	312.884776693534	762.212452452884	1082.054905074146	144.896402343182	835.530320789442	830.907339078820	137.587868206643	904.322591159588	1096.893973201489	716.456782952083	1137.271126351597	1031.236556225020	638.113827189350	
91	35.060000000000	643.106811314875	1004.187663611772	446.713853996530	799.337461748812	1434.177408613734	265.558164015309	912.047562877327	1364.302237951675	420.403423755387	837.193022883397	1436.951947978380	599.175203401318	804.181198729477	1494.329713082020	416.845240912655	869.662648978132	938.144229052395	560.037948531125	856.030931275155	960.187631979596	287.253084428021	916.379643307165	738.263029676005	544.787349145709	839.040859592879	629.014172613804	610.523534736321	924.067417788865	569.846640092827	540.076633606932	914.755721675949	458.627599524887	562.433013294091	918.975479379011	759.913299899731	318.769028083556	843.519909777525	636.749140758800	259.726434325324	935.185480596098	567.834948580359	323.476952169636	941.777811315368	497.099371343074	332.982745416647	920.148501294106	423.168355831149	326.128206365530	838.992064674692	301.897605290354	278.337146929046	898.407922363025	196.206205403722	351.076327934346	833.085525133473	394.028417972317	563.962157416236	707.484400203286	361.839107180333	618.541769119561	688.754955554740	254.261613691447	568.029404224757	484.752566657509	205.928747109162	530.337855693121	646.169563666401	135.157704257141	576.366369154561	535.266778405352	139.943255359122	603.713949598229	703.239631079726	30.024293099779	602.602475624970	779.160377350990	37.726531906852	397.038853508064	852.539774151051	34.946175784368	315.296544279570	935.160681202531	96.889712404049	340.967120794012	1063.769939614292	46.641464168888	312.801415635790	772.075904777030	1082.049822269815	140.161321149178	853.232832493930	833.306937578538	132.120890344159	894.345086896756	1095.148574204989	714.600185610788	1124.746149555614	1014.477761459208	641.410332809120	
92	35.073000000000	642.651571444481	1004.247772280305	444.226806285981	800.952703450946	1434.246394528640	263.165695614080	912.234705577176	1364.499984214167	419.094333868094	835.854617557898	1437.240134635510	597.201068254228	804.604178821316	1494.635089680904	414.457701673769	868.946191803716	938.665054408744	558.505136240067	856.355507509111	960.474722511888	285.676758985808	920.924361458275	741.701219918816	543.120080467110	847.149078018842	630.864544716876	609.744332446890	933.786150481200	573.456167476678	539.257947291911	926.486000695282	461.228154759696	561.984204936358	918.126593898501	759.249213856616	316.541264306101	841.305540952324	636.713099652317	258.221235288418	932.398185039720	567.105736452461	321.834182383910	938.394740096602	496.411994212702	331.611274821851	916.316829426879	422.553791815150	325.036979678741	834.424053079338	301.711460447229	277.438640739784	892.911502659453	195.816867381715	350.587761470377	843.747556713323	396.791943881488	563.362563777497	717.213668657455	367.422794708874	617.671698824181	696.276329302635	260.276271464374	567.440309649787	492.072533852039	218.640364009706	529.111994603519	650.628261885973	141.272714675069	576.068634484325	539.524705085674	150.298321771492	602.602338418802	702.990106951515	30.747057334283	602.419348571067	772.673352998802	37.765842548368	396.885312828365	846.054385755195	34.898420383525	315.184529301487	928.760492391383	96.753762909436	340.854842144622	1057.355577693918	46.301257720697	312.704024684562	781.932872643852	1082.315480415783	135.626597124841	871.154816140769	836.311072425418	126.974299633089	884.142556985653	1093.514421392406	712.672288872319	1110.730529081541	997.350853871454	644.850508343859	
